<svg xmlns="http://www.w3.org/2000/svg" viewBox="0 0 220 47"><path fill="#ee3643" d="M0 0h220v47H0z"/><path fill="#b52933" d="M0 42h220v5H0z"/><path fill="#fff" d="M55 14.9h3.8V30H61V14.9h3.8v-1.7H55v1.7zm14.1 7.2h5.3v-1.7h-5.3v-5.5h6v-1.7h-8.2V30h8.2v-1.7h-6v-6.2zM82 20l-2.6-6.7h-2.2l3.2 8.2-3.6 8.5H79l3-7.2 3 7.2h2.2l-3.6-8.6 3.2-8.2h-2.2L82 20zm14.4-6.8v7.4h-5v-7.4h-2.2V30h2.2v-7.7h5V30h2.2V13.2h-2.2zm7.8.2c-.7.3-1.2.8-1.6 1.4-.5.8-.9 1.7-1 2.7-.3 1.4-.4 2.8-.3 4.2 0 1.4.1 2.8.3 4.2.2.9.5 1.8 1 2.7.4.6 1 1.1 1.6 1.4 1.4.5 2.9.5 4.3 0 .7-.3 1.2-.8 1.6-1.4.5-.8.9-1.7 1-2.7.3-1.4.4-2.8.3-4.2 0-1.4-.1-2.8-.3-4.2-.2-.9-.5-1.8-1-2.7-.4-.6-1-1.1-1.6-1.4-1.4-.5-2.9-.5-4.3 0zm1 15.1c-.4-.3-.8-.7-1-1.1-.3-.7-.5-1.4-.7-2.2-.2-1.2-.3-2.4-.3-3.6 0-1.2.1-2.4.3-3.6.1-.8.3-1.5.7-2.2.2-.5.5-.9 1-1.1.7-.4 1.6-.4 2.3 0 .4.3.8.7 1 1.1.3.7.5 1.4.7 2.2.2 1.2.3 2.4.3 3.6 0 1.2-.1 2.4-.3 3.6-.1.8-.3 1.5-.7 2.2-.2.5-.5.9-1 1.1-.7.4-1.6.4-2.3 0zm17.2-.6l3.5-10.3h.1l.7 12.5h2.2l-1-16.8h-2.6l-3.9 11.5h-.1l-3.9-11.5h-2.6l-1 16.8h2.2l.7-12.5h.1l3.5 10.3h2.1zm16.5-2.2L140 30h2.2L138 13.2h-3.1L130.8 30h2.2l1.1-4.3h4.8zm-.4-1.7h-4.1l2-8.4h.1l2 8.4zm7.9-.6v-8.9h1.7c.5 0 .9.1 1.4.2.4.1.7.4 1 .7.3.4.5.9.6 1.4.1.7.2 1.4.2 2.2 0 .7 0 1.4-.2 2.2-.1.5-.3 1-.6 1.4-.2.3-.6.6-1 .7-.5.1-.9.2-1.4.2l-1.7-.1zm0 1.5c.4.1.8.1 1.2.2.4 0 .8.1 1.2.1.7 0 1.4-.1 2-.3.6-.2 1.1-.5 1.4-1 .4-.6.7-1.2.8-1.9.2-1 .3-1.9.3-2.9s-.1-1.9-.3-2.9c-.1-.7-.5-1.3-.9-1.8s-1-.8-1.6-1c-.8-.2-1.6-.3-2.4-.3-.7 0-1.3 0-2 .1-.6.1-1.2.2-1.8.4V30h2.2l-.1-5.1zm8.4-10h3.8V30h2.2V14.9h3.8v-1.7h-9.8v1.7z"/></svg>