<svg xmlns="http://www.w3.org/2000/svg" viewBox="0 0 220 68"><path fill="#ee3643" d="M0 0h220v68H0z"/><path fill="#b52933" d="M0 63h220v5H0z"/><path fill="#fff" d="M42 23.4h4.8v18.9h2.7V23.4h4.8v-2.1H42v2.1zm17.4 9H66v-2.1h-6.6v-6.9h7.5v-2.1H56.7v21h10.2v-2.1h-7.5v-7.8zM75 29.7l-3.3-8.4H69l4 10.2-4.5 10.8h2.7l3.8-9 3.8 9h2.7L77 31.5l4-10.2h-2.7L75 29.7zm18-8.4v9.3h-6.3v-9.3H84v21h2.7v-9.6H93v9.6h2.7v-21H93zm10 .2c-.8.4-1.5 1-2 1.7-.6 1-1.1 2.1-1.3 3.3-.6 3.5-.6 7 0 10.5.2 1.2.6 2.3 1.3 3.3.5.8 1.2 1.4 2 1.7 1.7.7 3.7.7 5.4 0 .8-.4 1.5-1 2-1.7.6-1 1.1-2.1 1.3-3.3.6-3.5.6-7 0-10.5-.2-1.2-.6-2.3-1.3-3.3-.5-.8-1.2-1.4-2-1.7-1.7-.7-3.6-.7-5.4 0zm1.3 18.9c-.5-.3-.9-.8-1.2-1.4-.4-.9-.7-1.8-.8-2.8-.4-2.9-.4-5.9 0-8.9.1-1 .4-1.9.8-2.8.3-.6.7-1.1 1.2-1.4.9-.5 2-.5 2.8 0 .5.3.9.8 1.2 1.4.4.9.7 1.8.8 2.8.4 2.9.4 5.9 0 8.9-.1 1-.4 1.9-.8 2.8-.3.6-.7 1.1-1.2 1.4-.8.5-1.9.5-2.8 0zm21.8-.8l4.3-12.9h.1l.9 15.6h2.7l-1.2-21h-3.3l-4.9 14.4h-.1l-4.9-14.4h-3.3l-1.2 21h2.7l.9-15.6h.2l4.3 12.9h2.8zm20.4-2.7l1.3 5.4h2.7l-5.1-21h-3.9l-5.1 21h2.7l1.3-5.4h6.1zm-.4-2.1H141l2.5-10.5h.1l2.5 10.5zm9.9-.7V23h2.1c.6 0 1.2.1 1.8.3.5.2.9.5 1.2.9.4.5.6 1.1.7 1.7.3 1.8.3 3.6 0 5.4-.1.6-.3 1.2-.7 1.7-.3.4-.7.7-1.2.9-.6.2-1.2.3-1.8.3H156zm0 1.8c.5.1 1 .2 1.4.2.5.1 1 .1 1.6.1.9 0 1.7-.1 2.5-.4.7-.2 1.3-.7 1.8-1.3.5-.7.9-1.5 1.1-2.3.3-1.2.4-2.4.3-3.7 0-1.2-.1-2.4-.4-3.6-.2-.9-.6-1.6-1.1-2.3-.5-.6-1.3-1-2-1.3-1-.3-2-.4-3.1-.4-.8 0-1.7 0-2.5.1s-1.5.2-2.3.5v20.7h2.7v-6.3zm10.2-12.5h4.8v18.9h2.7V23.4h4.8v-2.1h-12.3v2.1z"/></svg>